<?xml version="1.0" encoding="utf-8"?>
<!-- Generator: Adobe Illustrator 25.0.0, SVG Export Plug-In . SVG Version: 6.00 Build 0)  -->
<svg version="1.1" id="Signature_2" xmlns="http://www.w3.org/2000/svg" xmlns:xlink="http://www.w3.org/1999/xlink" x="0px"
	 y="0px" viewBox="0 0 280 280" style="enable-background:new 0 0 280 280;" xml:space="preserve">
<style type="text/css">
	.st0{fill:none;stroke:url(#SVGID_1_);stroke-width:0.8727;stroke-miterlimit:10;}
	.st1{fill:none;stroke:url(#SVGID_2_);stroke-width:0.8437;stroke-miterlimit:10;}
	.st2{fill:none;stroke:url(#SVGID_3_);stroke-width:0.8146;stroke-miterlimit:10;}
	.st3{fill:none;stroke:url(#SVGID_4_);stroke-width:0.7855;stroke-miterlimit:10;}
	.st4{fill:none;stroke:url(#SVGID_5_);stroke-width:0.7564;stroke-miterlimit:10;}
	.st5{fill:none;stroke:url(#SVGID_6_);stroke-width:0.7273;stroke-miterlimit:10;}
	.st6{fill:none;stroke:url(#SVGID_7_);stroke-width:0.6982;stroke-miterlimit:10;}
	.st7{fill:none;stroke:url(#SVGID_8_);stroke-width:0.6692;stroke-miterlimit:10;}
	.st8{fill:none;stroke:url(#SVGID_9_);stroke-width:0.6401;stroke-miterlimit:10;}
	.st9{fill:none;stroke:url(#SVGID_10_);stroke-width:0.611;stroke-miterlimit:10;}
	.st10{fill:none;stroke:url(#SVGID_11_);stroke-width:0.5819;stroke-miterlimit:10;}
	.st11{fill:none;stroke:url(#SVGID_12_);stroke-width:0.5528;stroke-miterlimit:10;}
	.st12{fill:none;stroke:url(#SVGID_13_);stroke-width:0.5237;stroke-miterlimit:10;}
	.st13{fill:none;stroke:url(#SVGID_14_);stroke-width:0.4946;stroke-miterlimit:10;}
	.st14{fill:none;stroke:url(#SVGID_15_);stroke-width:0.4656;stroke-miterlimit:10;}
	.st15{fill:none;stroke:url(#SVGID_16_);stroke-width:0.4365;stroke-miterlimit:10;}
	.st16{fill:none;stroke:url(#SVGID_17_);stroke-width:0.4074;stroke-miterlimit:10;}
	.st17{fill:none;stroke:url(#SVGID_18_);stroke-width:0.3783;stroke-miterlimit:10;}
	.st18{fill:#101820;}
</style>
<g>
	<g>
		<radialGradient id="SVGID_1_" cx="140" cy="140" r="110.0309" gradientUnits="userSpaceOnUse">
			<stop  offset="0" style="stop-color:#08C2FC"/>
			<stop  offset="1" style="stop-color:#0842FC"/>
		</radialGradient>
		<circle class="st0" cx="140" cy="140" r="109.6"/>
		<radialGradient id="SVGID_2_" cx="140" cy="140" r="111.5859" gradientUnits="userSpaceOnUse">
			<stop  offset="0" style="stop-color:#08C2FC"/>
			<stop  offset="1" style="stop-color:#0842FC"/>
		</radialGradient>
		<circle class="st1" cx="140" cy="140" r="111.2"/>
		<radialGradient id="SVGID_3_" cx="140" cy="140" r="113.1408" gradientUnits="userSpaceOnUse">
			<stop  offset="0" style="stop-color:#08C2FC"/>
			<stop  offset="1" style="stop-color:#0842FC"/>
		</radialGradient>
		<circle class="st2" cx="140" cy="140" r="112.7"/>
		<radialGradient id="SVGID_4_" cx="140" cy="140" r="114.6958" gradientUnits="userSpaceOnUse">
			<stop  offset="0" style="stop-color:#08C2FC"/>
			<stop  offset="1" style="stop-color:#0842FC"/>
		</radialGradient>
		<circle class="st3" cx="140" cy="140" r="114.3"/>
		<radialGradient id="SVGID_5_" cx="140" cy="140" r="116.2507" gradientUnits="userSpaceOnUse">
			<stop  offset="0" style="stop-color:#08C2FC"/>
			<stop  offset="1" style="stop-color:#0842FC"/>
		</radialGradient>
		<circle class="st4" cx="140" cy="140" r="115.9"/>
		<radialGradient id="SVGID_6_" cx="140" cy="140" r="117.8057" gradientUnits="userSpaceOnUse">
			<stop  offset="0" style="stop-color:#08C2FC"/>
			<stop  offset="1" style="stop-color:#0842FC"/>
		</radialGradient>
		<circle class="st5" cx="140" cy="140" r="117.4"/>
		<radialGradient id="SVGID_7_" cx="140" cy="140" r="119.3607" gradientUnits="userSpaceOnUse">
			<stop  offset="0" style="stop-color:#08C2FC"/>
			<stop  offset="1" style="stop-color:#0842FC"/>
		</radialGradient>
		<circle class="st6" cx="140" cy="140" r="119"/>
		<radialGradient id="SVGID_8_" cx="140" cy="140" r="120.9156" gradientUnits="userSpaceOnUse">
			<stop  offset="0" style="stop-color:#08C2FC"/>
			<stop  offset="1" style="stop-color:#0842FC"/>
		</radialGradient>
		<circle class="st7" cx="140" cy="140" r="120.6"/>
		<radialGradient id="SVGID_9_" cx="140" cy="140" r="122.4706" gradientUnits="userSpaceOnUse">
			<stop  offset="0" style="stop-color:#08C2FC"/>
			<stop  offset="1" style="stop-color:#0842FC"/>
		</radialGradient>
		<circle class="st8" cx="140" cy="140" r="122.2"/>
		<radialGradient id="SVGID_10_" cx="140" cy="140" r="124.0255" gradientUnits="userSpaceOnUse">
			<stop  offset="0" style="stop-color:#08C2FC"/>
			<stop  offset="1" style="stop-color:#0842FC"/>
		</radialGradient>
		<circle class="st9" cx="140" cy="140" r="123.7"/>
		<radialGradient id="SVGID_11_" cx="140" cy="140" r="125.5805" gradientUnits="userSpaceOnUse">
			<stop  offset="0" style="stop-color:#08C2FC"/>
			<stop  offset="1" style="stop-color:#0842FC"/>
		</radialGradient>
		<circle class="st10" cx="140" cy="140" r="125.3"/>
		<radialGradient id="SVGID_12_" cx="140" cy="140" r="127.1354" gradientUnits="userSpaceOnUse">
			<stop  offset="0" style="stop-color:#08C2FC"/>
			<stop  offset="1" style="stop-color:#0842FC"/>
		</radialGradient>
		<circle class="st11" cx="140" cy="140" r="126.9"/>
		<radialGradient id="SVGID_13_" cx="140" cy="140" r="128.6904" gradientUnits="userSpaceOnUse">
			<stop  offset="0" style="stop-color:#08C2FC"/>
			<stop  offset="1" style="stop-color:#0842FC"/>
		</radialGradient>
		<circle class="st12" cx="140" cy="140" r="128.4"/>
		<radialGradient id="SVGID_14_" cx="140" cy="140" r="130.2453" gradientUnits="userSpaceOnUse">
			<stop  offset="0" style="stop-color:#08C2FC"/>
			<stop  offset="1" style="stop-color:#0842FC"/>
		</radialGradient>
		<circle class="st13" cx="140" cy="140" r="130"/>
		<radialGradient id="SVGID_15_" cx="140" cy="140" r="131.8003" gradientUnits="userSpaceOnUse">
			<stop  offset="0" style="stop-color:#08C2FC"/>
			<stop  offset="1" style="stop-color:#0842FC"/>
		</radialGradient>
		<circle class="st14" cx="140" cy="140" r="131.6"/>
		<radialGradient id="SVGID_16_" cx="140" cy="140" r="133.3553" gradientUnits="userSpaceOnUse">
			<stop  offset="0" style="stop-color:#08C2FC"/>
			<stop  offset="1" style="stop-color:#0842FC"/>
		</radialGradient>
		<circle class="st15" cx="140" cy="140" r="133.1"/>
		<radialGradient id="SVGID_17_" cx="140" cy="140" r="134.9102" gradientUnits="userSpaceOnUse">
			<stop  offset="0" style="stop-color:#08C2FC"/>
			<stop  offset="1" style="stop-color:#0842FC"/>
		</radialGradient>
		<circle class="st16" cx="140" cy="140" r="134.7"/>
		<radialGradient id="SVGID_18_" cx="140" cy="140" r="136.4652" gradientUnits="userSpaceOnUse">
			<stop  offset="0" style="stop-color:#08C2FC"/>
			<stop  offset="1" style="stop-color:#0842FC"/>
		</radialGradient>
		<circle class="st17" cx="140" cy="140" r="136.3"/>
	</g>
	<g>
		<path class="st18" d="M92.5,134.8c-0.6,2.8-3.3,4.9-6.4,4.9c-5.6,0-11.2,0-16.8,0c-0.8,0-1.6,0-2.5,0h-5.3v-4.6h5.3v0
			c1.4,0,2.8,0,4.2,0c4.7,0,9.5,0,14.2,0c0.4,0,0.7,0,1.1-0.1c1.1-0.2,1.6-0.7,1.7-1.8c0.1-1.1-0.3-1.8-1.4-2.1
			c-0.5-0.2-1-0.2-1.6-0.2c-5.4,0-10.7-0.1-16.1-0.1c-2,0-3.8-0.5-5.3-1.8c-2-1.7-2.7-4.7-1.7-7.4c0.9-2.4,3.3-4.1,5.9-4.1
			c4,0,7.9,0,11.9,0c3.3,0,6.7,0,7.7,0h5v4.5h-5c-2.8,0-5.5,0-8.3,0c-3.5,0-6.9,0-10.4,0c-0.4,0-0.9,0-1.3,0.2
			c-0.9,0.3-1.3,0.8-1.4,1.8c-0.1,1,0.3,1.6,1.2,2c0.6,0.2,1.2,0.3,1.9,0.3c5.2,0,10.5,0,15.7,0c1.4,0,2.8,0.2,4,0.9
			C91.9,128.5,93.2,131.4,92.5,134.8z"/>
		<path class="st18" d="M152.5,117.8c3,0,6-0.2,8.9,0.1c3.9,0.3,5.9,2.2,6.2,6.1c0.2,3.2,0.2,6.4-0.1,9.6c-0.3,3.4-2.2,5.3-5.6,5.8
			c-2.2,0.3-4.3,0.4-6.5,0.4c-3.7,0-7.5,0.2-11.2-0.1c-0.8-0.1-1.7-0.2-2.5-0.4c-2.8-0.7-4.3-2.6-4.6-5.4c-0.4-3.3-0.4-6.7,0-10.1
			c0.4-3.6,2.5-5.4,6.1-5.7c1.6-0.1,3.1-0.2,4.7-0.3C149.4,117.8,150.9,117.8,152.5,117.8z M152.4,135.3c0.4,0,0.9,0,1.3,0
			c2.5-0.1,5.1,0,7.6-0.4c1.2-0.2,1.6-0.5,1.7-1.5c0.3-3.2,0.3-6.5,0.1-9.7c0-0.6-0.4-0.9-0.9-1c-0.4-0.1-0.7-0.2-1.1-0.2
			c-5.8-0.3-11.5-0.1-17.2,0.2c-1.8,0.1-2.2,0.5-2.2,2.4c-0.1,2.5-0.1,5.1,0,7.6c0.1,1.9,0.4,2.2,2.3,2.5
			C146.6,135.4,149.5,135.3,152.4,135.3z"/>
		<path class="st18" d="M123.8,117.5c-3.9,0-7.8,0-11.7,0c-2.8,0-5.6,0-8.4,0v0h-4.4v22.2h4.4v-8.9h0.6c0.1,0,0.3,0,0.6,0
			c0.1,0,0.1,0,0.2,0c1.4,0,2.8,0,4.2,0c4.7,0,9.4,0,14.1,0c2.6,0,4.8-0.9,6.2-3.2C132.3,123.1,129,117.5,123.8,117.5z M125.9,124.4
			c-0.1,1.1-0.8,1.8-2.1,1.8c-1.5,0-3,0-4.6,0h-5.1c-0.9,0-1.8,0-2.6,0v0h-7.7v-4.3h1.1c2.2,0,4.4,0,6.7,0c1.5,0,3.1,0,4.6,0
			c2.3,0,4.5,0,6.8,0c0.5,0,0.9,0.1,1.3,0.2C125.5,122.4,126,123.2,125.9,124.4z"/>
		<polygon class="st18" points="174.2,117.5 205.2,117.5 205.2,122 192,122 192,139.7 187.5,139.7 187.5,122 174.2,122 		"/>
		<polygon class="st18" points="211.8,117.5 218.6,117.5 218.6,139.7 214.1,139.7 214.1,121.9 211.8,121.9 		"/>
		<path class="st18" d="M105.3,144.4c2.2,0.1,4.8-0.1,7.4,0.2c2.9,0.3,4.5,1.9,4.8,4.8c0.2,2.6,0.2,5.2,0,7.8
			c-0.2,2.9-1.9,4.7-4.8,5c-5,0.5-10,0.5-15,0.2c-0.6,0-1.2-0.2-1.8-0.4c-1.9-0.6-3.1-1.9-3.3-3.8c-0.4-3.1-0.4-6.3,0-9.4
			c0.3-2.3,2-3.7,4.4-4C99.6,144.4,102.2,144.4,105.3,144.4z M104.6,158.8c1,0,1.9,0,2.9,0c1.5,0,3-0.1,4.5-0.2
			c1.3-0.2,1.7-0.4,1.8-1.6c0.2-2.5,0.1-5,0-7.5c0-0.6-0.4-1-1-1.1c-0.9-0.1-1.8-0.2-2.8-0.2c-3.6,0-7.2,0-10.9,0.2
			c-0.7,0-1.3,0.2-2,0.3c-0.6,0.1-0.9,0.4-1,1.1c-0.2,2.5-0.2,4.9,0,7.4c0.1,1.2,0.3,1.3,1.5,1.5
			C99.9,158.9,102.2,158.8,104.6,158.8z"/>
		<polygon class="st18" points="61.4,162.5 65,162.5 65,151.8 74,157.7 83,151.8 83,162.5 86.8,162.5 86.8,144.7 74.1,153.3 
			61.4,144.9 		"/>
		<path class="st18" d="M147.3,153.1c2.1-3.2,0.7-7.2-2.9-8.4c-0.7-0.2-1.5-0.3-2.3-0.3c-5.2,0-10.5,0-15.7,0v0h-3.6v18.2h3.6l6.9,0
			c0,0,0,0,0,0c3.2,0,6.4,0,9.6,0c2.1,0,3.8-0.9,4.8-2.8c1-1.9,0.9-3.9-0.3-5.8C147.1,153.6,147.1,153.4,147.3,153.1z M126.4,148.1
			h0.8c2.7,0,5.4,0,8,0c2.4,0,4.7,0,7.1,0c1.6,0,2.3,0.7,2.2,2c-0.1,0.7-0.5,1.1-1.1,1.3c-0.4,0.1-0.8,0.1-1.3,0.1
			c-0.4,0-0.8,0-1.1,0c-2,0-4.1,0-6.1,0c-0.7,0-1.3,0-2,0H130c-0.9,0-1.8,0-2.8,0c-0.1,0-0.2,0-0.2,0h-0.6V148.1z M144.5,157.2
			c0,0.9-0.4,1.3-1.2,1.5c-0.3,0.1-0.7,0.1-1,0.1c-2.5,0-5,0-7.4,0c-1.3,0-2.7,0-4,0c-1.2,0-2.3,0-3.5,0c-0.1,0-0.2,0-0.3,0h-0.6
			v-3.5h0.7c0.1,0,0.1,0,0.2,0c0.3,0,0.7,0,1,0c2.3,0,4.6,0,6.9,0c0.2,0,0.5,0,0.7,0c2.1,0,4.1,0,6.2,0c0.5,0,0.9,0.1,1.3,0.2
			C144.2,155.8,144.6,156.3,144.5,157.2z"/>
		<polygon class="st18" points="187.8,158.8 187.8,162.5 162.2,162.5 162.2,144.3 165.9,144.3 165.9,158.8 		"/>
		<polygon class="st18" points="218.5,148.1 218.5,144.3 193,144.3 193,146.2 193,148.1 193,151.6 193,155.3 193,158.8 193,162.6 
			196.8,162.6 218.5,162.6 218.5,158.8 196.8,158.8 196.8,155.3 211.2,155.3 211.2,151.6 196.8,151.6 196.8,148.1 		"/>
		<rect x="153.2" y="144.3" class="st18" width="3.7" height="18.2"/>
	</g>
</g>
</svg>
