<svg xmlns="http://www.w3.org/2000/svg" viewBox="0 0 105 105" style="enable-background:new 0 0 105 105" xml:space="preserve"><circle cx="52.8" cy="52.5" r="25.8" style="fill:#00f"/><path d="M99 51.5c-9-17.2-26.8-27.9-46.5-27.9S15 34.2 6 51.5c-.3.7-.3 1.4 0 2.1 19.4 37.2 73.6 37.2 93 0 .3-.7.3-1.5 0-2.1zm-88.4 1c5.2-9.4 13.3-16.5 23-20.6C21.8 42.7 21.3 61 32.3 72.6c-9.1-4.2-16.7-11.1-21.7-20.1zm42.2 24.3c-13.2 0-23.9-10.8-23.9-24s10.7-24 23.9-24 23.9 10.8 23.9 24c0 13.3-10.7 24-23.9 24zM73.9 72c10.3-11.3 9.8-28.8-1.2-39.6 9.1 4.1 16.8 11.1 21.8 20.1-4.8 8.6-12.1 15.3-20.6 19.5z"/><path d="M52.5 63c-5.7 0-10.3-4.7-10.3-10.5 0-9.9 12.3-14.2 18.4-6.5l3.6-2.8c-8.7-11.1-26.5-4.8-26.5 9.3 0 8.3 6.7 15 14.9 15s14.9-6.9 14.9-15H63C62.8 57.9 58.2 63 52.5 63z"/><path d="M45.5 52.5c0 3.8 3.1 7 7 7 3.8 0 7-3.1 7-7 0-3.8-3.1-7-7-7-3.8 0-7 3.2-7 7z"/><circle cx="63.7" cy="48" r="6.5" style="fill:#fff"/></svg>