<svg version="1.1" id="artwork" xmlns="http://www.w3.org/2000/svg" x="0" y="0" viewBox="0 0 105 105" style="enable-background:new 0 0 105 105" xml:space="preserve"><style>.st0{fill:#00f}</style><path d="M25.7 93.4H12.3c-1.6 0-2.5-1.7-1.7-3.1l20.1-32.2c.8-1.3 2.6-1.3 3.4 0l4 6.4c.6.9.3 2.2-.6 2.8-.9.6-2.2.3-2.8-.6L32.4 63 15.9 89.4h9.8c1.1 0 2 .9 2 2s-.9 2-2 2zM79.3 93.4h13.4c1.6 0 2.5-1.7 1.7-3.1L74.3 58.1c-.8-1.3-2.6-1.3-3.4 0l-4 6.4c-.6.9-.3 2.2.6 2.8.9.6 2.2.3 2.8-.6l2.3-3.7 16.5 26.4h-9.8c-1.1 0-2 .9-2 2s.9 2 2 2z"/><path class="st0" d="m48.3 68.6 2.8-2.8c.8-.8 2.1-.8 2.8 0l2.8 2.8 4.8-3.9-7.2-14.4c-.7-1.5-2.9-1.5-3.6 0l-7.2 14.4 4.8 3.9z"/><path class="st0" d="m74.4 90.5-11-22.1-5.6 4.5c-.8.6-2 .6-2.7-.1l-2.6-2.6-2.6 2.6c-.7.7-1.9.8-2.7.1l-5.6-4.5-11 22.1c-.7 1.3.3 2.9 1.8 2.9h40.2c1.5 0 2.5-1.6 1.8-2.9z"/><path d="M77.9 29.4c-1.3-1.1-2.7-2.7-4.2-4.9 1.7-2.6 3.3-5.4 4.8-8.5.9-1.8-1.2-3.6-2.9-2.6-3.2 2-6.6 1-10.4-.2-4.2-1.3-8.9-2.8-13.8.2-.6.4-.9 1-.9 1.7v28c0 1.1.9 2 2 2s2-.9 2-2v-11c2.9-1.3 6-.4 9.5.7 2.4.8 4.9 1.6 7.6 1.6 2 0 4.1-.5 6.2-1.8 1.1-.7 1.2-2.3.1-3.2zM65.2 29c-3.5-1.1-7-2.2-10.7-1.2V16.3c2.9-1.3 6-.4 9.5.7 2.7.8 5.6 1.8 8.6 1.5-.9 1.7-1.9 3.3-3 4.8-.5.7-.5 1.6 0 2.3 1.2 1.8 2.4 3.4 3.5 4.6-2.5.5-5-.3-7.9-1.2z"/></svg>