<?xml version="1.0" encoding="utf-8"?>
<!-- Generator: Adobe Illustrator 25.0.0, SVG Export Plug-In . SVG Version: 6.00 Build 0)  -->
<svg version="1.1" id="Capa_1" xmlns="http://www.w3.org/2000/svg" xmlns:xlink="http://www.w3.org/1999/xlink" x="0px" y="0px"
	 viewBox="0 0 434.1 160.1" style="enable-background:new 0 0 434.1 160.1;" xml:space="preserve">
<style type="text/css">
	.st0{fill:#FFFFFF;}
	.st1{fill:#101820;}
</style>
<g>
	<path class="st0" d="M97.6,66.9c-1.6,7.1-8.2,12.3-16.1,12.4c-14.1,0.1-28.1,0-42.2,0c-2.1,0-4.1,0-6.2,0H19.8V67.8h13.3v0
		c3.5,0,7.1,0,10.6,0c11.9,0,23.8,0,35.8,0c0.9,0,1.9,0,2.8-0.2c2.8-0.5,4-1.9,4.2-4.5c0.2-2.9-0.8-4.5-3.5-5.4
		c-1.3-0.4-2.6-0.6-3.9-0.6c-13.5,0-26.9-0.1-40.4-0.2c-5,0-9.5-1.3-13.4-4.6c-5-4.3-6.7-11.9-4.3-18.6c2.2-6,8.3-10.3,14.7-10.3
		c10,0,20,0,29.9,0c8.4,0,16.8,0,19.4,0h12.6v11.3H85.2c-7,0-13.9,0-20.9,0c-8.7,0-17.4,0-26.1,0c-1.1,0-2.1,0.1-3.2,0.4
		c-2.4,0.7-3.3,2-3.5,4.6c-0.1,2.5,0.7,4,2.9,4.9c1.5,0.6,3.1,0.8,4.7,0.8c13.2,0,26.4,0,39.6,0.1c3.5,0,6.9,0.6,10.1,2.1
		C96.2,51.2,99.5,58.4,97.6,66.9z"/>
	<path class="st0" d="M248.4,24.3c7.5-0.1,15-0.4,22.5,0.2c9.7,0.8,14.9,5.6,15.5,15.3c0.5,8,0.6,16.1-0.2,24.1
		c-0.9,8.6-5.5,13.3-14.1,14.6c-5.4,0.8-10.9,1-16.4,1c-9.4,0.1-18.7,0.5-28.1-0.3c-2.1-0.2-4.2-0.5-6.3-1
		c-7.1-1.8-10.9-6.6-11.6-13.7c-0.9-8.4-0.9-16.9,0.1-25.3c1.1-9,6.2-13.5,15.3-14.3c3.9-0.4,7.9-0.5,11.8-0.6
		C240.6,24.2,244.5,24.3,248.4,24.3z M248.1,68.2c1.1,0,2.1,0,3.2,0c6.3-0.2,12.7,0,19-1c3.1-0.5,4-1.1,4.3-3.8
		c0.8-8.1,0.8-16.3,0.1-24.5c-0.1-1.5-1-2.3-2.4-2.6c-0.9-0.2-1.8-0.4-2.8-0.5c-14.5-0.8-28.9-0.4-43.3,0.5
		c-4.6,0.3-5.4,1.3-5.6,6.1c-0.3,6.4-0.3,12.7,0,19.1c0.2,4.7,1.1,5.6,5.8,6.2C233.7,68.5,240.9,68.3,248.1,68.2z"/>
	<path class="st0" d="M176.2,23.4c-9.8-0.1-19.5,0-29.3,0c-7,0-14.1,0-21.1,0v0h-11v55.9h11V56.9h1.6c0.3,0,0.8,0,1.5,0
		c0.1,0,0.3,0,0.5,0c3.5,0,7.1,0,10.6,0c11.8,0,23.6,0,35.4,0c6.5,0,12-2.2,15.5-8C197.6,37.7,189.5,23.5,176.2,23.4z M181.6,40.9
		c-0.3,2.8-2.1,4.5-5.4,4.5c-3.8,0.1-7.6,0-11.4,0h-12.9c-2.2,0-4.4,0-6.7,0v0.1h-19.5V34.7h2.8c5.6,0,11.1,0.1,16.7,0
		c3.9,0,7.7,0,11.6,0c5.7,0,11.4,0,17.1,0c1.2,0,2.3,0.1,3.4,0.4C180.6,35.9,181.9,37.7,181.6,40.9z"/>
	<polygon class="st0" points="303.1,23.4 381,23.4 381,34.7 347.7,34.7 347.7,79.2 336.3,79.2 336.3,34.7 303.1,34.7 	"/>
	<polygon class="st0" points="397.5,23.4 414.7,23.4 414.7,79.2 403.3,79.2 403.3,34.6 397.5,34.6 	"/>
	<path class="st0" d="M129.8,91.1c5.4,0.1,12-0.3,18.6,0.4c7.4,0.8,11.4,4.8,12,12.1c0.5,6.6,0.4,13.1-0.1,19.7
		c-0.5,7.3-4.7,11.7-12,12.5c-12.5,1.3-25.1,1.2-37.7,0.4c-1.5-0.1-3-0.5-4.5-0.9c-4.7-1.4-7.7-4.7-8.4-9.6c-1.1-7.8-1-15.8,0-23.6
		c0.8-5.8,5-9.2,11.2-10.1C115.5,91.1,122.1,91.2,129.8,91.1z M128,127.2c2.4,0,4.8,0.1,7.2,0c3.7-0.1,7.5-0.1,11.2-0.6
		c3.3-0.4,4.3-1.1,4.5-4c0.4-6.3,0.4-12.6,0.1-18.9c-0.1-1.5-0.9-2.4-2.5-2.7c-2.3-0.4-4.6-0.6-7-0.6c-9.1-0.1-18.2,0.1-27.3,0.4
		c-1.7,0.1-3.3,0.4-5,0.6c-1.5,0.2-2.3,1.1-2.5,2.7c-0.6,6.2-0.6,12.4-0.1,18.6c0.2,2.9,0.8,3.3,3.7,3.8
		C116.2,127.6,122.1,127.2,128,127.2z"/>
	<polygon class="st0" points="19.4,136.7 28.7,136.7 28.7,109.6 51.3,124.4 73.8,109.6 73.8,136.7 83.4,136.7 83.4,91.9 51.4,113.4 
		19.4,92.3 	"/>
	<path class="st0" d="M235.4,112.8c5.4-8,1.8-18.2-7.3-21.1c-1.9-0.6-3.8-0.8-5.7-0.8c-13.2,0-26.4,0-39.6,0v0h-8.9v45.7h8.9
		l17.4,0.1c0,0,0,0,0,0c8,0,16.1,0.1,24.1,0c5.2-0.1,9.6-2.3,12-7.1c2.4-4.9,2.3-9.8-0.8-14.5C234.8,114.2,234.8,113.7,235.4,112.8z
		 M182.8,100.3h2.1c6.7,0,13.5,0,20.2,0c5.9,0,11.8,0,17.8,0c4.1,0,5.9,1.8,5.5,5.1c-0.2,1.8-1.1,2.8-2.8,3.3
		c-1,0.3-2.1,0.3-3.2,0.3c-0.9,0-1.9,0-2.8,0c-5.1,0-10.3,0-15.4,0c-1.6,0-3.3,0-4.9,0H192c-2.3,0-4.6,0-6.9,0c-0.2,0-0.4,0-0.6,0
		h-1.6V100.3z M228.4,123.2c-0.1,2.2-0.9,3.3-3.1,3.8c-0.8,0.2-1.7,0.3-2.6,0.3c-6.2,0-12.5,0-18.7,0c-3.4,0-6.8,0-10.1,0
		c-2.9,0-5.8,0-8.8,0c-0.3,0-0.6,0-0.8,0h-1.6v-8.8h1.7c0.2,0,0.4,0,0.6,0c0.8,0,1.7,0,2.5,0c5.8,0,11.6,0,17.4,0c0.6,0,1.2,0,1.8,0
		c5.2,0,10.3,0,15.5,0c1.2,0,2.3,0.2,3.3,0.5C227.6,119.7,228.5,121.1,228.4,123.2z"/>
	<polygon class="st0" points="337,127.3 337,136.6 272.7,136.6 272.7,90.9 282.2,90.9 282.2,127.3 	"/>
	<polygon class="st0" points="414.2,100.4 414.2,90.9 350.2,90.9 350.2,95.6 350.2,100.4 350.2,109.1 350.2,118.5 350.2,127.3 
		350.2,136.7 359.7,136.7 414.2,136.7 414.2,127.3 359.7,127.3 359.7,118.5 396,118.5 396,109.1 359.7,109.1 359.7,100.4 	"/>
	<rect x="250.2" y="90.9" class="st0" width="9.4" height="45.8"/>
</g>
</svg>
